<svg xmlns="http://www.w3.org/2000/svg" width="256" height="256" viewBox="0 0 256 256">
<rect width="256" height="256" fill="#4b3625"/>
<g fill="#6b4a2f" opacity=".95"><circle cx="36" cy="42" r="18"/><circle cx="104" cy="31" r="11"/><circle cx="192" cy="56" r="22"/><circle cx="63" cy="120" r="13"/><circle cx="143" cy="101" r="25"/><circle cx="220" cy="146" r="17"/><circle cx="84" cy="206" r="26"/><circle cx="166" cy="205" r="15"/></g>
<g fill="#3c2a1c" opacity=".7"><circle cx="72" cy="70" r="5"/><circle cx="120" cy="156" r="8"/><circle cx="213" cy="92" r="7"/><circle cx="183" cy="175" r="6"/><circle cx="45" cy="170" r="6"/></g>
<g stroke="#2d2016" stroke-width="8" opacity=".45"><path d="M0 88l53 16 46-12 48 20 56-22 53 18"/><path d="M10 230l43-28 42 10 51-24 56 23 54-18"/></g>
</svg>